<svg width="168" height="34" viewBox="0 0 168 34" fill="none" xmlns="http://www.w3.org/2000/svg">
<path d="M35.9277 3.58983C36.5883 3.58983 37.0685 3.28547 37.0685 2.71361C37.0685 2.14155 36.576 1.98036 35.9736 1.85563C35.5394 1.76735 35.3345 1.70037 35.3345 1.47528C35.3345 1.25018 35.5425 1.14982 35.8636 1.14982C36.1846 1.14982 36.3956 1.28971 36.4294 1.5697H36.998C36.9523 1.00993 36.5272 0.705566 35.8665 0.705566C35.2058 0.705566 34.741 0.988422 34.741 1.53611C34.741 2.0838 35.2213 2.24499 35.7473 2.35764C36.1939 2.45493 36.4753 2.50961 36.4753 2.78039C36.4753 3.05116 36.2091 3.13636 35.9034 3.13636C35.4844 3.13636 35.2917 3.00548 35.2429 2.67081H34.6617C34.6831 3.25802 35.1325 3.58369 35.931 3.58369M29.8142 3.52286H31.9856V3.06037H30.4106V2.30889H31.7808V1.84948H30.4106V1.24117H31.9735V0.757181H29.8144V3.52286H29.8142ZM24.6916 1.22274H25.5755V3.52593H26.1686V1.22888H27.0525V0.757181H24.6945L24.6916 1.22274ZM21.022 1.70345C21.0708 1.55434 21.1441 1.27763 21.1441 1.27763C21.1441 1.27763 21.2145 1.55761 21.2635 1.70345L21.5266 2.50367H20.7527L21.022 1.70345ZM19.8291 3.52593H20.4408L20.6335 2.93584H21.6917L21.8875 3.52593H22.499L21.4652 0.754109H20.8536L19.8291 3.52593ZM15.52 1.24404H16.1317C16.4374 1.24404 16.5994 1.36877 16.5994 1.62131C16.5994 1.87386 16.4495 2.00474 16.1347 2.00474H15.5231L15.52 1.24404ZM16.6853 3.52593H17.3733L16.6394 2.39102C16.9951 2.3048 17.2414 1.98221 17.2296 1.61824C17.2337 1.38741 17.1378 1.1658 16.9667 1.00993C16.7553 0.826 16.4794 0.733012 16.199 0.751241H14.9052V3.52593H15.5169V2.458H16.0061L16.6853 3.52593ZM11.419 3.52593H12.0307V0.757181H11.419V3.52593ZM5.60819 3.52593H6.15275V1.93776C6.15275 1.71266 6.12825 1.36263 6.12825 1.36263C6.12825 1.36263 6.19248 1.68829 6.25672 1.88901L6.76731 3.52572H7.33925L7.84386 1.88901C7.90522 1.68829 7.97233 1.36263 7.97233 1.36263C7.97233 1.36263 7.94804 1.71246 7.94804 1.93776V3.52593H8.50145V0.757181H7.65733L7.24145 2.1477C7.14057 2.49753 7.0611 2.89611 7.0611 2.89611C7.0611 2.89611 6.97854 2.49753 6.87745 2.1477L6.45539 0.757181H5.60819V3.52593ZM0.617188 3.52593H2.78842V3.06058H1.21054V2.3091H2.58069V1.84948H1.21054V1.24117H2.77339V0.757181H0.617188V3.52593Z" fill="#010202"/>
<path d="M36.9528 6.32812H30.3133V6.51369H33.7079L28.9615 22.4531L27.9033 19.642L22.9584 6.51369H26.1113V6.32812H13.9181V6.51369H16.0558L16.8754 8.69215L18.9826 14.2964L18.744 15.0995L16.5604 22.432L10.5387 6.51369H12.7927V6.32812H12.7896H0.672852V6.51369H3.63612L13.6183 33.0896L19.1141 14.6704L26.0349 33.0896L29.6619 20.9166L33.9527 6.51369H36.9528V6.32812Z" fill="#010202"/>
<path d="M48.0507 30.0377C47.4643 28.7281 47.0847 27.3366 46.9253 25.9121C46.6548 23.7486 46.5323 21.5693 46.5583 19.3888C46.5323 17.2089 46.6548 15.0294 46.9253 12.8659C47.0847 11.4412 47.4643 10.0496 48.0507 8.74022C48.4452 7.83307 49.1172 7.07279 49.9714 6.56791C50.8313 6.13738 51.786 5.92825 52.7483 5.95959C53.3009 5.9555 53.8514 6.02104 54.3875 6.15417C54.7789 6.24675 55.158 6.38562 55.516 6.56791C56.3739 7.06746 57.0508 7.82488 57.4488 8.73121C58.0352 10.0406 58.4144 11.4322 58.5742 12.8567C58.8447 15.0202 58.9672 17.1997 58.941 19.3796C58.9674 21.5601 58.8449 23.7393 58.5742 25.9028C58.4146 27.3274 58.035 28.7191 57.4488 30.0285C57.051 30.9359 56.3745 31.6945 55.516 32.1947C53.7629 33.0293 51.7243 33.0293 49.9714 32.1947C49.7745 32.0884 49.5884 31.9641 49.4147 31.8236C48.8328 31.3318 48.3665 30.7188 48.0476 30.0285M63.6753 12.4493C62.4713 10.4687 60.8121 8.80023 58.8342 7.58135C57.8989 7.00581 56.8938 6.55091 55.8431 6.2275C54.8411 5.91617 53.7977 5.75641 52.7481 5.75293C51.7953 5.75805 50.8476 5.89323 49.9314 6.15458C49.8365 6.18182 49.7449 6.20026 49.65 6.23077C49.5063 6.27338 49.3657 6.32806 49.2248 6.37681C48.3276 6.68834 47.467 7.09634 46.6589 7.59364C44.6804 8.8117 43.021 10.4802 41.8178 12.4616C41.193 13.4871 40.7036 14.5884 40.3622 15.7385C39.6618 18.1308 39.6618 20.6722 40.3622 23.0649C40.7052 24.2104 41.1944 25.3072 41.8178 26.3293C43.0216 28.3103 44.6808 29.9783 46.6589 31.1972C47.4316 31.6701 48.2514 32.0616 49.1056 32.3655C49.286 32.4294 49.4665 32.4966 49.65 32.5511C51.6639 33.1852 53.8257 33.1852 55.8398 32.5511C56.8905 32.2277 57.8956 31.7728 58.8309 31.1972C60.809 29.9785 62.4682 28.3099 63.672 26.3293C64.2958 25.3037 64.784 24.2024 65.1249 23.0524C65.8227 20.6681 65.8227 18.1351 65.1249 15.7506C64.7842 14.6007 64.2958 13.4994 63.672 12.4739" fill="#010202"/>
<path d="M91.772 6.32812L86.8759 22.4136L80.6278 6.32812H71.0615H71.0586V6.51369H71.0615H74.4377V32.2683H71.135V32.4567H77.8509V32.2683H74.6611V8.86543L83.9306 32.8278L91.6221 7.56032V32.2683H88.3194V32.4567H101.228V32.2683H101.225H97.9254V6.51369H101.228V6.32812H91.772Z" fill="#010202"/>
<path d="M160.846 6.32812H154.13H154.054V6.51369H157.225V21.0751L146.888 6.32812H137.059H136.982V6.51369H140.285V32.2683H136.982V32.4567H137.059H143.775V32.2683H143.699H140.585V8.71038L157.47 32.8278V32.7215L157.546 32.8278V6.51369H160.773H160.846V6.32812Z" fill="#010202"/>
<path d="M118.859 23.3655H112.614L115.559 15.2027L118.859 23.3655ZM132.254 32.268H129.502L118.691 5.69189L118.673 5.74064L118.651 5.69189L109.082 32.268H106.137V32.4534H112.63V32.268H109.406L112.538 23.5513H118.936L122.462 32.268H119.049V32.4534H132.294V32.268H132.257H132.254Z" fill="#010202"/>
</svg>
